<svg width="167" height="195" viewBox="0 0 167 195" fill="none" xmlns="http://www.w3.org/2000/svg">
<circle cx="83.5" cy="111.5" r="78.5" stroke="white" stroke-width="10"/>
<path d="M117.349 37.5L85 63.3599L52.6512 37.5L117.349 37.5Z" fill="white" stroke="white"/>
<path d="M105.347 31.9112L70.8887 50.3654L45.1121 20.9798L105.347 31.9112Z" fill="white" stroke="white"/>
<path d="M119.832 13.7462L108.066 40.1006L81.1833 29.5964L119.832 13.7462Z" fill="white" stroke="white"/>
<path d="M104.514 36.8317L74.2043 38.5613L67.2031 9.02063L104.514 36.8317Z" fill="white" stroke="white"/>
<path d="M100.305 9.60763L101.645 39.937L72.0166 46.558L100.305 9.60763Z" fill="white" stroke="white"/>
<path d="M135.638 93.6491C137.654 92.7442 138.554 90.377 137.649 88.3616C136.744 86.3463 134.377 85.4461 132.362 86.3509L135.638 93.6491ZM132.362 86.3509L83.3616 108.351L86.6384 115.649L135.638 93.6491L132.362 86.3509Z" fill="white"/>
<mask id="path-8-inside-1_5_461" fill="white">
<path d="M133.351 161.351C120.13 174.572 102.198 182 83.5 182C64.8022 182 46.8703 174.572 33.649 161.351C20.4277 148.13 13 130.198 13 111.5C13 92.8022 20.4277 74.8703 33.649 61.649L83.5 111.5L133.351 161.351Z"/>
</mask>
<path d="M133.351 161.351C120.13 174.572 102.198 182 83.5 182C64.8022 182 46.8703 174.572 33.649 161.351C20.4277 148.13 13 130.198 13 111.5C13 92.8022 20.4277 74.8703 33.649 61.649L83.5 111.5L133.351 161.351Z" fill="white" stroke="white" stroke-width="2" mask="url(#path-8-inside-1_5_461)"/>
<circle cx="83.5" cy="111.5" r="7" fill="white" stroke="white"/>
</svg>
