<svg width="28" height="32" viewBox="0 0 28 32" fill="none" xmlns="http://www.w3.org/2000/svg">
<circle cx="13.8267" cy="17.8267" r="12.8267" stroke="white" stroke-width="2"/>
<path d="M18.2416 6.62682L14.075 9.95759L9.90849 6.62682L18.2416 6.62682Z" fill="white" stroke="white"/>
<path d="M16.1929 5.48103L11.8335 7.8157L8.57246 4.09808L16.1929 5.48103Z" fill="white" stroke="white"/>
<path d="M19.037 3.05758L17.6757 6.1068L14.5654 4.89146L19.037 3.05758Z" fill="white" stroke="white"/>
<path d="M16.1371 5.74773L12.6127 5.94884L11.7986 2.51387L16.1371 5.74773Z" fill="white" stroke="white"/>
<path d="M16.2432 2.75554L16.399 6.28223L12.9538 7.05211L16.2432 2.75554Z" fill="white" stroke="white"/>
<path d="M22.5985 15.8152C23.1023 15.589 23.3274 14.9972 23.1011 14.4934C22.8749 13.9895 22.2831 13.7645 21.7793 13.9907L22.5985 15.8152ZM21.7793 13.9907L13.6654 17.6336L14.4846 19.4582L22.5985 15.8152L21.7793 13.9907Z" fill="white"/>
<mask id="path-8-inside-1_14_476" fill="white">
<path d="M21.0711 25.0711C19.1957 26.9464 16.6522 28 14 28C11.3478 28 8.8043 26.9464 6.92893 25.0711C5.05357 23.1957 4 20.6522 4 18C4 15.3478 5.05357 12.8043 6.92893 10.9289L14 18L21.0711 25.0711Z"/>
</mask>
<path d="M21.0711 25.0711C19.1957 26.9464 16.6522 28 14 28C11.3478 28 8.8043 26.9464 6.92893 25.0711C5.05357 23.1957 4 20.6522 4 18C4 15.3478 5.05357 12.8043 6.92893 10.9289L14 18L21.0711 25.0711Z" fill="white" stroke="white" stroke-width="2" mask="url(#path-8-inside-1_14_476)"/>
<circle cx="13.8266" cy="18.4632" r="0.741915" fill="white" stroke="white"/>
</svg>
